PathFileType	4	(X/Y/Z)	OpenSim_Sub01_EMGStiffKnee_Magnet.trc
DataRate	CameraRate	NumFrames	NumMarkers	Units	OrigDataRate	OrigDataStartFrame	OrigNumFrames
100	100	30	8	m	100	4176	5567
Frame#	Time	torso_imu_offset_imu	pelvis_imu_offset_imu	tibia_r_imu_offset_imu	femur_r_imu_offset_imu	tibia_l_imu_offset_imu	femur_l_imu_offset_imu	toes_r_imu_offset_imu	toes_l_imu_offset_imu
				X1	Y1	Z1	X2	Y2	Z2	X3	Y3	Z3	X4	Y4	Z4	X5	Y5	Z5	X6	Y6	Z6	X7	Y7	Z7	X8		Y8	Z8	

4176	41.75000000	-0.92630628	-0.06262999	0.11093995	-0.68245732	0.03380759	-0.63945592	-0.31946091	-0.75564555	-0.07222112	-0.53664299	-0.62449987	0.05496561	-0.68958969	0.38422676	0.16490051	-0.52670950	-0.12311563	0.26603950	-0.78899748	-0.18212663	-0.20015866	-0.64011413	-0.15799180	-0.46627317
4177	41.76000000	-0.92608340	-0.06625710	0.10449552	-0.68238410	0.03229464	-0.64100147	-0.30312579	-0.76534602	-0.08188010	-0.53888933	-0.62341999	0.05268014	-0.68376794	0.39298479	0.16791108	-0.52745048	-0.11516672	0.26638424	-0.79987604	-0.18261375	-0.17125865	-0.64831452	-0.15227703	-0.45047235
4178	41.77000000	-0.92700185	-0.06943993	0.10067883	-0.68246452	0.03126863	-0.64061056	-0.28605173	-0.77023912	-0.08830084	-0.54385617	-0.62164374	0.04924150	-0.67611467	0.40234924	0.17063247	-0.52671020	-0.11281367	0.27009890	-0.80966273	-0.18621982	-0.13733469	-0.65502458	-0.15097659	-0.43566944
4179	41.78000000	-0.92888354	-0.07146832	0.09937674	-0.68356777	0.03122262	-0.63810200	-0.26886499	-0.77095460	-0.09104568	-0.55090946	-0.61877587	0.04495579	-0.66778398	0.41137284	0.17371463	-0.52478044	-0.11662741	0.27587171	-0.81806498	-0.19346963	-0.10079147	-0.66112600	-0.15335061	-0.42276967
4180	41.79000000	-0.93054137	-0.07170170	0.09820952	-0.68700955	0.03152051	-0.63377075	-0.25288976	-0.77226972	-0.09154343	-0.55832526	-0.61419276	0.04178102	-0.66079630	0.41944910	0.17681439	-0.52248213	-0.12265699	0.27854355	-0.82510658	-0.20379012	-0.06489038	-0.66740613	-0.15592873	-0.41183868
4181	41.80000000	-0.93112915	-0.07005476	0.09579151	-0.69300814	0.03181919	-0.62814361	-0.23868094	-0.77751463	-0.09076253	-0.56483063	-0.60758475	0.04089750	-0.65625135	0.42620909	0.17977136	-0.52025988	-0.12720837	0.27568941	-0.83040641	-0.21662655	-0.03133609	-0.67417970	-0.15619437	-0.40280813
4182	41.81000000	-0.93089084	-0.06808674	0.09386406	-0.69848679	0.03273247	-0.62239992	-0.22445424	-0.78540238	-0.08816066	-0.57057600	-0.59959256	0.04104843	-0.65244684	0.43196378	0.18304412	-0.51739966	-0.12769655	0.27330267	-0.83235619	-0.23156239	0.00285797	-0.68036435	-0.15467363	-0.39527557
4183	41.82000000	-0.93025568	-0.06755102	0.09454859	-0.70004103	0.03499347	-0.61779035	-0.20812083	-0.79381966	-0.08295693	-0.57602098	-0.59102649	0.04067733	-0.64730289	0.43715355	0.18717322	-0.51309671	-0.12193157	0.27837776	-0.82928790	-0.24814688	0.04111200	-0.68468059	-0.15244405	-0.38879803
4184	41.83000000	-0.92940965	-0.06855655	0.09700292	-0.69847888	0.03847311	-0.61482788	-0.18950613	-0.80106040	-0.07497963	-0.58231357	-0.58260482	0.04048526	-0.64084146	0.44227355	0.19221365	-0.50839464	-0.11056726	0.28959921	-0.82203512	-0.26503386	0.08035694	-0.68676436	-0.15041715	-0.38325010
4185	41.84000000	-0.92835153	-0.06994677	0.09810429	-0.69784965	0.04237888	-0.61345766	-0.16990915	-0.80573271	-0.06452635	-0.59113086	-0.57497464	0.04291028	-0.63470225	0.44786077	0.19784676	-0.50575887	-0.09644643	0.29925673	-0.81335670	-0.28018790	0.11253050	-0.68695647	-0.14937631	-0.37875079
4186	41.85000000	-0.92717001	-0.07106279	0.09581116	-0.70037499	0.04622789	-0.61362765	-0.15059099	-0.80725437	-0.05234770	-0.60309314	-0.56821817	0.04922762	-0.63017260	0.45394776	0.20395977	-0.50633142	-0.08235983	0.30234880	-0.80551717	-0.29154888	0.13232084	-0.68586804	-0.14976518	-0.37536874
4187	41.86000000	-0.92623524	-0.07282120	0.09146897	-0.70259798	0.05050787	-0.61533767	-0.13258755	-0.80742515	-0.04050448	-0.61563991	-0.56074472	0.05712457	-0.62736928	0.45906501	0.21108013	-0.50721334	-0.07077608	0.30241149	-0.79916504	-0.29703589	0.14297072	-0.68485938	-0.15102750	-0.37300421
4188	41.87000000	-0.92592743	-0.07631603	0.08702165	-0.70034683	0.05582550	-0.61855744	-0.11694270	-0.80835794	-0.03120820	-0.62580784	-0.55080435	0.06371691	-0.62611290	0.46160854	0.21972903	-0.50501082	-0.06389695	0.30429695	-0.79461086	-0.29473326	0.14906516	-0.68533230	-0.15243977	-0.37154878
4189	41.88000000	-0.92599826	-0.08093749	0.08399857	-0.69446232	0.06188126	-0.62266270	-0.10544299	-0.81026178	-0.02530034	-0.63340511	-0.53889177	0.06749495	-0.62503107	0.46211798	0.22856273	-0.50010521	-0.06082273	0.30893099	-0.79157888	-0.28525502	0.15160821	-0.68723640	-0.15354122	-0.37122938
4190	41.89000000	-0.92571589	-0.08476480	0.08360929	-0.68964269	0.06767845	-0.62657212	-0.10044577	-0.81188027	-0.02256735	-0.64037311	-0.52722890	0.06800773	-0.62183410	0.46278256	0.23480292	-0.49578299	-0.05826694	0.31421734	-0.78934213	-0.27116250	0.14884789	-0.68940360	-0.15407354	-0.37253061
4191	41.90000000	-0.92471349	-0.08666019	0.08618154	-0.68909206	0.07265877	-0.62942495	-0.10315873	-0.81214996	-0.02219313	-0.64827479	-0.51705277	0.06558593	-0.61567055	0.46505816	0.23698838	-0.49406956	-0.05385404	0.31848802	-0.78727943	-0.25502481	0.13980725	-0.69088268	-0.15399941	-0.37524225
4192	41.91000000	-0.92374583	-0.08791273	0.08944717	-0.69127996	0.07762000	-0.63105080	-0.11132993	-0.81069274	-0.02165187	-0.65738567	-0.50654182	0.06280195	-0.61003274	0.46809549	0.23768125	-0.49302104	-0.04809784	0.32157868	-0.78511845	-0.23928525	0.12602279	-0.69145223	-0.15392264	-0.37706981
4193	41.92000000	-0.92371300	-0.09016626	0.09083947	-0.69385832	0.08351243	-0.63142357	-0.12217881	-0.80732544	-0.01833833	-0.66766798	-0.49350857	0.06243752	-0.60887045	0.47067718	0.24001444	-0.49013502	-0.04200192	0.32363044	-0.78262427	-0.22628989	0.10944074	-0.69105068	-0.15450881	-0.37554497
4194	41.93000000	-0.92458729	-0.09365963	0.09050560	-0.69534332	0.08981737	-0.63076684	-0.13458633	-0.80288613	-0.01318891	-0.67795774	-0.47875118	0.06420509	-0.61096169	0.47245514	0.24453167	-0.48553220	-0.03590470	0.32519511	-0.77915601	-0.21727732	0.09118501	-0.68998950	-0.15557395	-0.37136466
4195	41.94000000	-0.92562677	-0.09755026	0.09068124	-0.69491693	0.09488599	-0.62949638	-0.14871247	-0.79899831	-0.00986525	-0.68622491	-0.46536518	0.06545511	-0.61110488	0.47375053	0.24978355	-0.48135187	-0.02963259	0.32714048	-0.77376082	-0.21263327	0.07174623	-0.68886727	-0.15628041	-0.36766161
4196	41.95000000	-0.92616016	-0.10117285	0.09285089	-0.69242956	0.09798059	-0.62811624	-0.16478248	-0.79639300	-0.01065235	-0.69153893	-0.45516082	0.06450842	-0.60621785	0.47499620	0.25438898	-0.47888689	-0.02299430	0.33009502	-0.76617232	-0.21228132	0.05131569	-0.68824013	-0.15618603	-0.36661779
4197	41.96000000	-0.92578061	-0.10447151	0.09610737	-0.68966696	0.10115717	-0.62737798	-0.18311770	-0.79308918	-0.01353638	-0.69630247	-0.44595352	0.06274975	-0.59982022	0.47690579	0.25732209	-0.47676060	-0.01578502	0.33395194	-0.75818772	-0.21483694	0.02924374	-0.68851630	-0.15607378	-0.36740377
4198	41.97000000	-0.92419162	-0.10749379	0.09917396	-0.68859789	0.10678475	-0.62803164	-0.20406350	-0.78676251	-0.01594152	-0.70333838	-0.43499985	0.06202181	-0.59633757	0.48018600	0.25772472	-0.47324240	-0.00784487	0.33841991	-0.75189817	-0.21870701	0.00478892	-0.69004700	-0.15686296	-0.36867333
4199	41.98000000	-0.92201564	-0.11014875	0.10186170	-0.68857624	0.11418734	-0.63012001	-0.22805925	-0.77745440	-0.01877564	-0.71253531	-0.42224489	0.06254394	-0.59548819	0.48466345	0.25626539	-0.46869006	0.00027666	0.34248031	-0.74808463	-0.22279596	-0.02183685	-0.69274039	-0.15812331	-0.36967798
4200	41.99000000	-0.92058206	-0.11223905	0.10481856	-0.68694394	0.12034602	-0.63314121	-0.25561598	-0.76702672	-0.02562689	-0.72152371	-0.40970283	0.06328581	-0.59336788	0.48948739	0.25478745	-0.46506829	0.00748418	0.34455546	-0.74651932	-0.22639110	-0.04968811	-0.69616358	-0.15838621	-0.37012954
4201	42	-0.92059413	-0.11377339	0.10820956	-0.68239526	0.12360893	-0.63628900	-0.28635464	-0.75653102	-0.03817909	-0.72858706	-0.39869230	0.06320271	-0.58763166	0.49402057	0.25465208	-0.46344857	0.01295794	0.34410125	-0.74680929	-0.22853722	-0.07831612	-0.69988509	-0.15684088	-0.36999087
4202	42.01000000	-0.92084049	-0.11538089	0.11070054	-0.67779661	0.12656548	-0.63789434	-0.31724601	-0.74447188	-0.05225265	-0.73412180	-0.38830711	0.06130272	-0.58084436	0.49831185	0.25569803	-0.46212533	0.01673883	0.34368754	-0.74814782	-0.22752929	-0.10880401	-0.70350385	-0.15471062	-0.36993551
4203	42.02000000	-0.91989115	-0.11773949	0.11083475	-0.67650187	0.13234940	-0.63633127	-0.34504498	-0.72902974	-0.06278541	-0.73892491	-0.37733507	0.05675461	-0.57629786	0.50250624	0.25747116	-0.45903124	0.01905787	0.34623454	-0.74961397	-0.22164790	-0.14237106	-0.70661699	-0.15351263	-0.37069760
4204	42.03000000	-0.91834147	-0.12054088	0.10946777	-0.67761800	0.14050559	-0.63300497	-0.37060846	-0.71058136	-0.06773012	-0.74394097	-0.36614041	0.05098514	-0.57457992	0.50628895	0.25934684	-0.45436811	0.02060916	0.35129047	-0.74972174	-0.21103299	-0.17803569	-0.70871087	-0.15353444	-0.37195181
4205	42.04000000	-0.91834494	-0.12271795	0.10923450	-0.67698415	0.14781702	-0.63165275	-0.39794969	-0.69119368	-0.06736040	-0.75022752	-0.35630029	0.04715832	-0.57419681	0.50899170	0.26056945	-0.45008395	0.02244300	0.35580863	-0.74655106	-0.19725545	-0.21312254	-0.70918707	-0.15411718	-0.37255760
